<mxfile host="app.diagrams.net" modified="2024-03-25T03:40:49.543Z" agent="Mozilla/5.0 (Windows NT 10.0; Win64; x64) AppleWebKit/537.36 (KHTML, like Gecko) Chrome/123.0.0.0 Safari/537.36" version="24.1.0" etag="N19UEASLDYLb0rH8sJJC" type="github">
  <diagram name="Page-1" id="csZ4GQbH0Yc9sudzDZlq">
    <mxGraphModel>
      <root>
        <mxCell id="0" />
        <mxCell id="1" parent="0" />
      </root>
    </mxGraphModel>
  </diagram>
</mxfile>
